<?xml version="1.0" standalone="no"?>
<!DOCTYPE svg PUBLIC "-//W3C//DTD SVG 20010904//EN"
 "http://www.w3.org/TR/2001/REC-SVG-20010904/DTD/svg10.dtd">
<svg version="1.0" xmlns="http://www.w3.org/2000/svg"
 width="920.000000pt" height="512.000000pt" viewBox="0 0 920.000000 512.000000"
 preserveAspectRatio="xMidYMid meet">

<g transform="translate(0.000000,512.000000) scale(0.100000,-0.100000)"
fill="#000000" stroke="none">
<path d="M4410 5109 c-478 -31 -946 -207 -1350 -507 -150 -112 -391 -353 -501
-502 -280 -378 -433 -756 -500 -1240 -18 -128 -15 -491 5 -635 39 -277 111
-520 225 -760 319 -669 911 -1168 1626 -1369 226 -64 416 -88 685 -89 343 0
629 52 930 170 755 297 1318 924 1539 1715 39 142 71 334 81 488 45 740 -202
1425 -703 1946 -535 557 -1257 835 -2037 783z m-316 -1308 c21 -23 16 -26 -63
-52 -153 -49 -328 -122 -442 -185 -86 -48 -201 -125 -195 -131 2 -2 28 7 58
21 196 90 495 175 743 213 158 23 567 24 730 0 235 -33 557 -127 718 -208 59
-31 43 -15 -45 44 -186 122 -315 184 -497 238 -35 10 -66 20 -68 23 -3 2 3 16
13 31 19 29 18 29 204 -1 187 -31 407 -120 605 -245 93 -59 90 -53 187 -289
174 -422 263 -759 323 -1225 2 -16 6 -79 10 -140 3 -60 8 -124 11 -141 4 -28
-5 -40 -81 -122 -212 -225 -472 -347 -785 -367 l-95 -7 -90 116 c-49 63 -90
121 -90 128 0 7 29 23 65 36 101 35 200 82 263 125 54 35 177 152 177 166 0 3
-62 -24 -137 -61 -76 -37 -160 -75 -188 -84 -27 -9 -54 -20 -60 -24 -5 -4 -44
-18 -85 -30 -41 -12 -94 -28 -117 -36 -23 -7 -107 -26 -185 -41 -132 -26 -162
-28 -388 -28 -253 0 -297 5 -510 55 -99 23 -252 69 -265 79 -5 5 -28 14 -50
21 -50 16 -133 52 -252 111 -102 50 -106 43 -21 -37 93 -87 224 -165 371 -219
26 -10 50 -21 52 -25 2 -4 -42 -62 -98 -129 l-102 -123 -80 6 c-334 28 -547
124 -767 348 -114 115 -108 87 -83 365 33 364 82 612 181 913 81 243 227 580
267 613 161 133 416 244 670 292 152 29 170 30 191 6z"/>
<path d="M3935 2671 c-91 -24 -168 -91 -212 -186 -24 -51 -28 -73 -27 -140 0
-101 27 -174 87 -236 66 -69 125 -94 222 -94 92 1 130 16 199 76 127 112 143
339 32 473 -67 83 -207 132 -301 107z"/>
<path d="M5055 2671 c-129 -34 -228 -158 -241 -303 -15 -155 94 -313 239 -349
188 -46 363 94 375 300 6 103 -15 174 -71 243 -71 87 -204 135 -302 109z"/>
</g>
</svg>
