<?xml version="1.0" standalone="no"?>
<!DOCTYPE svg PUBLIC "-//W3C//DTD SVG 20010904//EN"
 "http://www.w3.org/TR/2001/REC-SVG-20010904/DTD/svg10.dtd">
<svg version="1.0" xmlns="http://www.w3.org/2000/svg"
 width="225.000000pt" height="225.000000pt" viewBox="0 0 225.000000 225.000000"
 preserveAspectRatio="xMidYMid meet">
<metadata>
Created by potrace 1.16, written by Peter Selinger 2001-2019
</metadata>
<g transform="translate(0.000000,225.000000) scale(0.100000,-0.100000)"
fill="#000000" stroke="none">
<path d="M541 2110 c-173 -26 -304 -136 -357 -300 -16 -49 -18 -111 -22 -567
-3 -455 -2 -513 12 -513 8 0 19 6 23 14 4 7 23 21 41 30 17 9 32 21 32 26 0 6
10 10 23 10 12 0 31 6 42 14 35 24 65 29 65 12 0 -9 5 -16 10 -16 7 0 10 63 7
187 -1 104 0 262 3 353 6 142 10 175 32 237 51 143 158 227 328 257 19 4 190
6 380 6 273 0 357 -3 402 -15 169 -44 268 -146 304 -314 20 -94 20 -708 0
-802 -36 -169 -139 -274 -308 -314 -35 -8 -82 -15 -106 -15 -53 0 -47 -20 6
-21 33 -1 34 -2 12 -9 -14 -4 -18 -9 -10 -10 11 -1 9 -4 -5 -10 -16 -7 -10 -9
25 -10 25 -1 37 -4 28 -7 -20 -5 -24 -33 -8 -49 12 -12 18 -40 22 -95 l2 -39
113 0 c73 0 138 6 180 17 126 31 237 131 284 253 33 87 41 258 37 820 -4 499
-5 517 -26 577 -50 142 -138 229 -277 277 -58 20 -85 21 -650 22 -324 1 -614
-2 -644 -6z"/>
<path d="M819 1720 c-88 -11 -146 -38 -191 -88 -61 -67 -69 -115 -72 -401 -1
-136 0 -266 2 -287 l4 -39 116 3 c74 3 120 8 125 15 5 7 6 4 3 -8 -3 -11 -1
-27 5 -35 9 -13 10 -12 5 2 -9 28 13 31 24 4 5 -14 14 -26 21 -26 9 0 -3 24
-49 97 -20 32 -42 121 -42 173 0 98 47 207 118 274 20 20 66 50 102 68 59 30
73 33 155 32 121 -1 186 -26 263 -103 32 -31 67 -77 80 -103 114 -234 -31
-504 -291 -543 -42 -7 -58 -25 -21 -25 21 0 164 -131 164 -151 0 -4 10 -9 23
-13 19 -5 20 -8 7 -17 -11 -8 10 -9 80 -5 77 4 104 10 150 33 65 33 113 99
129 175 7 28 11 191 11 387 1 322 0 342 -21 405 -18 53 -32 75 -67 107 -75 66
-105 71 -457 74 -170 2 -340 0 -376 -5z m764 -121 c28 -13 47 -48 47 -85 0
-37 -51 -84 -90 -84 -42 0 -90 47 -90 88 0 68 70 110 133 81z"/>
<path d="M1055 1351 c-50 -24 -84 -55 -116 -106 -48 -79 -26 -227 44 -287 77
-65 181 -81 267 -41 89 42 134 114 134 213 0 78 -23 129 -83 183 -65 58 -168
74 -246 38z"/>
</g>
</svg>
