<?xml version="1.0" standalone="no"?>
<!DOCTYPE svg PUBLIC "-//W3C//DTD SVG 20010904//EN"
 "http://www.w3.org/TR/2001/REC-SVG-20010904/DTD/svg10.dtd">
<svg version="1.0" xmlns="http://www.w3.org/2000/svg"
 width="225.000000pt" height="225.000000pt" viewBox="0 0 225.000000 225.000000"
 preserveAspectRatio="xMidYMid meet">

<g transform="translate(0.000000,225.000000) scale(0.100000,-0.100000)"
fill="#000000" stroke="none">
<path d="M1190 1571 c0 -322 -4 -499 -11 -518 -14 -38 -56 -81 -101 -104 -77
-40 -181 -12 -242 63 -54 69 -47 182 16 247 47 48 85 64 151 64 l57 -1 0 118
0 118 -42 4 c-111 11 -244 -39 -327 -122 -97 -97 -136 -200 -129 -341 4 -76 9
-97 41 -162 82 -165 239 -256 424 -244 177 11 325 123 383 291 18 54 20 84 20
348 0 158 2 288 5 288 2 0 26 -14 52 -30 64 -41 144 -69 214 -77 l59 -6 0 117
0 116 -31 0 c-18 0 -65 16 -105 35 -102 49 -168 134 -183 234 l-6 46 -123 3
-122 3 0 -490z"/>
<path d="M672 438 c-18 -18 -15 -56 7 -63 28 -8 51 5 51 29 0 39 -34 58 -58
34z"/>
<path d="M400 410 c0 -28 2 -30 40 -30 l40 0 0 -128 0 -129 38 2 37 3 3 126 3
126 28 0 c23 0 31 6 40 30 l10 30 -120 0 -119 0 0 -30z"/>
<path d="M770 280 l0 -161 35 3 c32 2 35 5 35 34 0 38 9 64 21 64 5 0 24 -21
43 -47 30 -42 39 -48 75 -51 23 -1 41 0 41 3 0 3 -23 36 -50 74 -27 38 -50 73
-50 77 0 5 20 29 45 54 l44 45 -43 2 c-37 3 -47 -2 -76 -32 -19 -19 -38 -35
-42 -35 -4 0 -8 29 -8 65 l0 65 -35 0 -35 0 0 -160z"/>
<path d="M1040 410 c0 -28 2 -30 40 -30 l40 0 0 -129 0 -129 33 2 32 1 5 125
5 125 32 3 c25 2 34 10 42 33 l10 29 -120 0 -119 0 0 -30z"/>
<path d="M1590 281 l0 -158 38 1 c36 1 37 2 42 45 3 25 10 46 15 48 6 1 24
-18 42 -43 28 -41 36 -47 72 -48 23 -1 41 0 41 2 0 2 -23 36 -50 75 l-50 71
33 36 c18 19 40 44 48 54 13 19 12 19 -36 13 -36 -5 -58 -16 -82 -39 l-33 -32
0 67 0 67 -40 0 -40 0 0 -159z"/>
<path d="M1354 376 c-87 -39 -105 -153 -35 -220 59 -57 179 -42 221 26 39 64
15 159 -46 187 -43 19 -106 23 -140 7z m101 -81 c14 -13 25 -29 25 -35 0 -16
-21 -53 -34 -62 -21 -14 -66 -8 -86 12 -26 26 -25 51 1 84 26 33 62 34 94 1z"/>
<path d="M660 230 l0 -111 35 3 35 2 0 108 0 108 -35 0 -35 0 0 -110z"/>
</g>
</svg>
