<?xml version="1.0" standalone="no"?>
<!DOCTYPE svg PUBLIC "-//W3C//DTD SVG 20010904//EN"
 "http://www.w3.org/TR/2001/REC-SVG-20010904/DTD/svg10.dtd">
<svg version="1.0" xmlns="http://www.w3.org/2000/svg"
 width="800.000000pt" height="800.000000pt" viewBox="0 0 800.000000 800.000000"
 preserveAspectRatio="xMidYMid meet">
<metadata>
Created by potrace 1.16, written by Peter Selinger 2001-2019
</metadata>
<g transform="translate(0.000000,800.000000) scale(0.100000,-0.100000)"
fill="#000000" stroke="none">
<path d="M1328 6989 c-63 -15 -157 -68 -205 -115 -26 -26 -60 -77 -81 -122
l-37 -77 -3 -2645 c-1 -1777 1 -2661 8 -2693 27 -129 113 -238 235 -298 l70
-34 2685 0 2686 0 75 37 c93 46 158 112 202 206 l32 67 0 2685 0 2685 -31 66
c-55 115 -143 192 -265 230 -59 18 -136 19 -2697 18 -1486 -1 -2653 -5 -2674
-10z m3972 -2281 l0 -813 -262 -262 -263 -263 -405 0 -405 0 -215 -215 c-118
-118 -218 -215 -222 -215 -5 0 -8 97 -8 215 l0 215 -330 0 -330 0 0 1075 0
1075 1220 0 1220 0 0 -812z"/>
<path d="M3670 4485 l0 -445 150 0 150 0 0 445 0 445 -150 0 -150 0 0 -445z"/>
<path d="M4487 4923 c-4 -3 -7 -204 -7 -445 l0 -438 150 0 150 0 0 445 0 445
-143 0 c-79 0 -147 -3 -150 -7z"/>
</g>
</svg>
