<?xml version="1.0" standalone="no"?>
<!DOCTYPE svg PUBLIC "-//W3C//DTD SVG 20010904//EN"
 "http://www.w3.org/TR/2001/REC-SVG-20010904/DTD/svg10.dtd">
<svg version="1.0" xmlns="http://www.w3.org/2000/svg"
 width="900.000000pt" height="950.000000pt" viewBox="0 0 900.000000 950.000000"
 preserveAspectRatio="xMidYMid meet">

<g transform="translate(0.000000,950.000000) scale(0.100000,-0.100000)"
fill="#000000" stroke="none">
<path d="M4140 8614 c-239 -25 -472 -70 -672 -129 -562 -166 -1105 -484 -1516
-888 -652 -641 -1029 -1454 -1093 -2357 -21 -295 -1 -654 52 -935 173 -914
672 -1711 1419 -2266 196 -145 308 -213 555 -336 371 -186 762 -300 1211 -354
157 -19 214 -21 469 -16 160 3 315 9 345 15 30 5 96 16 145 22 216 29 562 122
790 212 151 60 430 200 560 280 306 190 598 437 828 698 141 161 205 244 327
432 204 311 393 742 479 1088 85 347 125 775 102 1104 -7 99 -14 188 -16 196
-1 8 -6 44 -10 80 -17 162 -83 461 -139 633 -179 542 -459 1010 -841 1405
-323 334 -630 562 -1005 746 -408 201 -747 304 -1190 362 -175 23 -621 27
-800 8z m-319 -1701 c95 -131 257 -353 359 -493 103 -140 251 -343 329 -450
78 -107 146 -195 151 -195 5 0 78 81 161 180 83 99 207 245 274 325 67 80 202
240 300 355 321 381 370 439 405 477 l35 39 353 -3 354 -3 -152 -180 c-83 -99
-256 -304 -384 -455 -217 -256 -301 -356 -495 -586 -42 -49 -146 -173 -231
-274 -85 -101 -178 -212 -207 -246 -29 -34 -57 -65 -62 -69 -23 -13 -8 -44 82
-166 50 -69 113 -154 139 -190 92 -126 340 -466 437 -599 55 -74 155 -211 223
-305 378 -519 822 -1125 884 -1208 24 -31 44 -58 44 -60 0 -6 -1328 -8 -1383
-2 l-62 7 -95 132 c-52 72 -144 199 -205 281 -113 151 -555 751 -714 967 -47
64 -91 116 -97 115 -12 -2 -125 -134 -723 -843 -494 -585 -553 -654 -560 -654
-3 0 -165 -1 -359 -3 -193 -1 -352 -1 -352 1 0 2 62 76 138 165 76 89 236 279
357 422 121 143 282 334 359 425 210 249 384 455 456 540 36 42 110 130 165
196 55 65 120 140 143 166 29 31 41 52 36 60 -4 7 -87 119 -184 249 -96 131
-240 325 -320 434 -80 108 -219 297 -310 420 -91 122 -237 321 -325 440 -141
192 -265 359 -526 710 -41 55 -75 103 -77 108 -2 4 327 7 731 7 l734 0 174
-237z"/>
<path d="M3020 6725 c0 -3 31 -47 68 -98 38 -50 172 -231 297 -402 126 -170
272 -368 325 -440 53 -71 136 -184 185 -250 48 -66 135 -183 192 -260 129
-174 387 -524 598 -810 161 -218 274 -372 679 -919 l218 -296 195 0 c155 0
193 3 185 13 -5 6 -70 95 -144 197 -74 102 -210 289 -303 415 -93 127 -204
280 -248 340 -78 107 -127 174 -537 735 -106 146 -272 373 -369 505 -96 132
-198 272 -226 310 -72 96 -459 626 -511 700 -24 33 -76 105 -117 160 l-73 100
-207 3 c-114 1 -207 0 -207 -3z"/>
<path d="M4070 153 c0 -5 -14 -16 -30 -25 -23 -13 -30 -24 -30 -48 0 -32 20
-40 50 -19 11 8 8 9 -13 4 -25 -5 -28 -3 -25 17 2 12 14 28 28 35 24 12 25 12
28 -27 2 -22 8 -40 14 -40 5 0 7 7 4 16 -3 9 -6 33 -6 55 0 21 -4 39 -10 39
-5 0 -10 -3 -10 -7z"/>
<path d="M4296 117 c1 -36 23 -87 24 -55 0 9 11 29 26 43 30 30 24 45 -19 45
-30 0 -32 -2 -31 -33z m54 14 c0 -5 -7 -14 -15 -21 -13 -10 -15 -9 -15 9 0 12
6 21 15 21 8 0 15 -4 15 -9z"/>
<path d="M4380 97 c0 -27 4 -46 9 -43 5 3 7 16 4 29 -5 19 -2 19 20 -8 14 -16
27 -28 30 -25 2 3 1 25 -3 50 -6 36 -8 39 -9 15 l-2 -30 -24 30 -25 30 0 -48z"/>
<path d="M4470 119 c-18 -32 -9 -64 20 -68 14 -1 28 -8 31 -13 4 -6 9 4 11 22
5 35 -15 52 -35 30 -10 -10 -8 -12 6 -6 13 4 17 2 15 -6 -7 -20 -42 -15 -46 5
-2 10 4 27 14 38 9 10 12 19 6 19 -6 0 -16 -9 -22 -21z"/>
<path d="M4112 96 c-8 -19 -8 -27 3 -36 8 -7 20 -10 27 -7 8 4 7 6 -4 6 -22 1
-24 17 -3 25 19 7 20 36 2 36 -8 0 -19 -11 -25 -24z m28 4 c0 -5 -5 -10 -11
-10 -5 0 -7 5 -4 10 3 6 8 10 11 10 2 0 4 -4 4 -10z"/>
<path d="M4175 108 c-10 -30 -9 -51 1 -55 7 -2 10 6 6 24 -3 16 -1 24 4 20 5
-5 9 -16 9 -25 0 -10 9 -18 21 -20 16 -2 23 4 29 25 l7 28 13 -30 c10 -23 14
-25 14 -10 1 25 -9 40 -31 48 -15 5 -18 1 -18 -23 0 -37 -18 -40 -22 -3 -3 29
-25 43 -33 21z"/>
<path d="M4602 108 c-5 -7 -12 -22 -14 -33 -2 -15 3 -20 22 -22 14 -1 18 0 8
3 -22 7 -23 22 -1 46 9 10 11 18 6 18 -6 0 -15 -6 -21 -12z"/>
<path d="M4657 113 c-13 -12 -7 -54 9 -60 23 -8 47 20 39 46 -6 20 -34 28 -48
14z m36 -40 c-7 -18 -22 -16 -30 3 -7 19 18 38 28 22 4 -6 5 -17 2 -25z"/>
<path d="M4746 111 c-4 -6 -12 -9 -17 -6 -5 4 -9 -9 -9 -27 l1 -33 14 25 c11
19 14 21 15 8 0 -10 5 -18 10 -18 6 0 10 8 10 18 1 13 4 11 15 -8 13 -22 14
-23 14 -5 -1 34 -14 61 -24 46 -6 -10 -9 -10 -15 -1 -5 9 -9 9 -14 1z"/>
<path d="M4550 60 c0 -5 5 -10 10 -10 6 0 10 5 10 10 0 6 -4 10 -10 10 -5 0
-10 -4 -10 -10z"/>
</g>
</svg>
