<?xml version="1.0" standalone="no"?>
<!DOCTYPE svg PUBLIC "-//W3C//DTD SVG 20010904//EN"
 "http://www.w3.org/TR/2001/REC-SVG-20010904/DTD/svg10.dtd">
<svg version="1.0" xmlns="http://www.w3.org/2000/svg"
 width="225.000000pt" height="225.000000pt" viewBox="0 0 225.000000 225.000000"
 preserveAspectRatio="xMidYMid meet">
<metadata>
Created by potrace 1.16, written by Peter Selinger 2001-2019
</metadata>
<g transform="translate(0.000000,225.000000) scale(0.100000,-0.100000)"
fill="#000000" stroke="none">
<path d="M715 1879 c-214 -7 -381 -22 -446 -39 -53 -14 -118 -62 -150 -109
-60 -90 -84 -305 -76 -686 6 -287 22 -415 62 -494 44 -88 118 -133 250 -150
300 -41 1225 -41 1530 0 184 24 255 95 292 290 15 79 17 150 17 434 0 442 -18
558 -104 643 -78 79 -174 97 -590 112 -312 11 -466 11 -785 -1z m471 -586
c150 -87 274 -161 274 -165 0 -3 -111 -70 -247 -148 -137 -79 -263 -151 -280
-162 l-33 -20 0 326 c0 179 3 326 6 326 3 0 129 -71 280 -157z"/>
</g>
</svg>
